{
    "asset": {
        "generator": "FBX2glTF v0.13.0",
        "version": "2.0"
    },
    "scene": 0,
    "extensionsUsed": [
        "KHR_lights_punctual"
    ],
    "buffers": [
        {
            "byteLength": 2568,
            "uri": "buffer.bin"
        }
    ],
    "bufferViews": [
        {
            "buffer": 0,
            "byteLength": 4,
            "byteOffset": 0
        },
        {
            "buffer": 0,
            "byteLength": 16,
            "byteOffset": 4
        },
        {
            "buffer": 0,
            "byteLength": 18,
            "byteOffset": 20,
            "target": 34963
        },
        {
            "buffer": 0,
            "byteLength": 84,
            "byteOffset": 40,
            "target": 34962
        },
        {
            "buffer": 0,
            "byteLength": 84,
            "byteOffset": 124,
            "target": 34962
        },
        {
            "buffer": 0,
            "byteLength": 24,
            "byteOffset": 208,
            "target": 34963
        },
        {
            "buffer": 0,
            "byteLength": 96,
            "byteOffset": 232,
            "target": 34962
        },
        {
            "buffer": 0,
            "byteLength": 96,
            "byteOffset": 328,
            "target": 34962
        },
        {
            "buffer": 0,
            "byteLength": 24,
            "byteOffset": 424,
            "target": 34963
        },
        {
            "buffer": 0,
            "byteLength": 108,
            "byteOffset": 448,
            "target": 34962
        },
        {
            "buffer": 0,
            "byteLength": 108,
            "byteOffset": 556,
            "target": 34962
        },
        {
            "buffer": 0,
            "byteLength": 12,
            "byteOffset": 664,
            "target": 34963
        },
        {
            "buffer": 0,
            "byteLength": 72,
            "byteOffset": 676,
            "target": 34962
        },
        {
            "buffer": 0,
            "byteLength": 72,
            "byteOffset": 748,
            "target": 34962
        },
        {
            "buffer": 0,
            "byteLength": 12,
            "byteOffset": 820,
            "target": 34963
        },
        {
            "buffer": 0,
            "byteLength": 72,
            "byteOffset": 832,
            "target": 34962
        },
        {
            "buffer": 0,
            "byteLength": 72,
            "byteOffset": 904,
            "target": 34962
        },
        {
            "buffer": 0,
            "byteLength": 36,
            "byteOffset": 976,
            "target": 34963
        },
        {
            "buffer": 0,
            "byteLength": 168,
            "byteOffset": 1012,
            "target": 34962
        },
        {
            "buffer": 0,
            "byteLength": 168,
            "byteOffset": 1180,
            "target": 34962
        },
        {
            "buffer": 0,
            "byteLength": 330,
            "byteOffset": 1348,
            "target": 34963
        },
        {
            "buffer": 0,
            "byteLength": 444,
            "byteOffset": 1680,
            "target": 34962
        },
        {
            "buffer": 0,
            "byteLength": 444,
            "byteOffset": 2124,
            "target": 34962
        }
    ],
    "scenes": [
        {
            "name": "Root Scene",
            "nodes": [
                0
            ]
        }
    ],
    "accessors": [
        {
            "componentType": 5126,
            "type": "SCALAR",
            "count": 1,
            "bufferView": 0,
            "byteOffset": 0,
            "min": [
                0.0
            ],
            "max": [
                0.0
            ]
        },
        {
            "componentType": 5126,
            "type": "VEC4",
            "count": 1,
            "bufferView": 1,
            "byteOffset": 0
        },
        {
            "componentType": 5123,
            "type": "SCALAR",
            "count": 9,
            "bufferView": 2,
            "byteOffset": 0
        },
        {
            "componentType": 5126,
            "type": "VEC3",
            "count": 7,
            "bufferView": 3,
            "byteOffset": 0,
            "min": [
                -0.159999996423721,
                -0.0958705917000771,
                -0.0107176396995783
            ],
            "max": [
                0.159999996423721,
                0.0494627356529236,
                0.0317823514342308
            ]
        },
        {
            "componentType": 5126,
            "type": "VEC3",
            "count": 7,
            "bufferView": 4,
            "byteOffset": 0
        },
        {
            "componentType": 5123,
            "type": "SCALAR",
            "count": 12,
            "bufferView": 5,
            "byteOffset": 0
        },
        {
            "componentType": 5126,
            "type": "VEC3",
            "count": 8,
            "bufferView": 6,
            "byteOffset": 0,
            "min": [
                -0.109999999403954,
                -0.0958705917000771,
                -0.0307176485657692
            ],
            "max": [
                0.109999999403954,
                0.0494627356529236,
                0.0317823514342308
            ]
        },
        {
            "componentType": 5126,
            "type": "VEC3",
            "count": 8,
            "bufferView": 7,
            "byteOffset": 0
        },
        {
            "componentType": 5123,
            "type": "SCALAR",
            "count": 12,
            "bufferView": 8,
            "byteOffset": 0
        },
        {
            "componentType": 5126,
            "type": "VEC3",
            "count": 9,
            "bufferView": 9,
            "byteOffset": 0,
            "min": [
                -0.159999996423721,
                -0.0958705917000771,
                -0.0307176485657692
            ],
            "max": [
                0.159999996423721,
                0.0494627356529236,
                0.0317823514342308
            ]
        },
        {
            "componentType": 5126,
            "type": "VEC3",
            "count": 9,
            "bufferView": 10,
            "byteOffset": 0
        },
        {
            "componentType": 5123,
            "type": "SCALAR",
            "count": 6,
            "bufferView": 11,
            "byteOffset": 0
        },
        {
            "componentType": 5126,
            "type": "VEC3",
            "count": 6,
            "bufferView": 12,
            "byteOffset": 0,
            "min": [
                -0.149999991059303,
                -0.0958705917000771,
                -0.00451764976605773
            ],
            "max": [
                0.149999991059303,
                0.0494627356529236,
                0.0192823503166437
            ]
        },
        {
            "componentType": 5126,
            "type": "VEC3",
            "count": 6,
            "bufferView": 13,
            "byteOffset": 0
        },
        {
            "componentType": 5123,
            "type": "SCALAR",
            "count": 6,
            "bufferView": 14,
            "byteOffset": 0
        },
        {
            "componentType": 5126,
            "type": "VEC3",
            "count": 6,
            "bufferView": 15,
            "byteOffset": 0,
            "min": [
                -0.159999996423721,
                0.00912940967828035,
                -0.0107176396995783
            ],
            "max": [
                0.159999996423721,
                0.0494627356529236,
                0.0192823503166437
            ]
        },
        {
            "componentType": 5126,
            "type": "VEC3",
            "count": 6,
            "bufferView": 16,
            "byteOffset": 0
        },
        {
            "componentType": 5123,
            "type": "SCALAR",
            "count": 18,
            "bufferView": 17,
            "byteOffset": 0
        },
        {
            "componentType": 5126,
            "type": "VEC3",
            "count": 14,
            "bufferView": 18,
            "byteOffset": 0,
            "min": [
                -0.109999999403954,
                0.0494627356529236,
                -0.0207176487892866
            ],
            "max": [
                0.109999999403954,
                0.0494627356529236,
                0.0142823597416282
            ]
        },
        {
            "componentType": 5126,
            "type": "VEC3",
            "count": 14,
            "bufferView": 19,
            "byteOffset": 0
        },
        {
            "componentType": 5123,
            "type": "SCALAR",
            "count": 165,
            "bufferView": 20,
            "byteOffset": 0
        },
        {
            "componentType": 5126,
            "type": "VEC3",
            "count": 37,
            "bufferView": 21,
            "byteOffset": 0,
            "min": [
                -0.159999996423721,
                -0.113370589911938,
                -0.0307176485657692
            ],
            "max": [
                0.159999996423721,
                0.0494627356529236,
                0.0317823514342308
            ]
        },
        {
            "componentType": 5126,
            "type": "VEC3",
            "count": 37,
            "bufferView": 22,
            "byteOffset": 0
        }
    ],
    "samplers": [
        {}
    ],
    "materials": [
        {
            "name": "Material_002",
            "alphaMode": "OPAQUE",
            "doubleSided": false,
            "extras": {
                "fromFBX": {
                    "shadingModel": "Lambert",
                    "isTruePBR": false
                }
            },
            "pbrMetallicRoughness": {
                "baseColorFactor": [
                    0.287120014429092,
                    0.409200012683868,
                    0.648479998111725,
                    1.0
                ],
                "metallicFactor": 0.200000002980232,
                "roughnessFactor": 0.800000011920929
            }
        },
        {
            "name": "Material_004",
            "alphaMode": "OPAQUE",
            "doubleSided": false,
            "extras": {
                "fromFBX": {
                    "shadingModel": "Lambert",
                    "isTruePBR": false
                }
            },
            "pbrMetallicRoughness": {
                "baseColorFactor": [
                    0.224079996347427,
                    0.109039999544621,
                    0.610880017280579,
                    1.0
                ],
                "metallicFactor": 0.200000002980232,
                "roughnessFactor": 0.800000011920929
            }
        },
        {
            "name": "Material_005",
            "alphaMode": "OPAQUE",
            "doubleSided": false,
            "extras": {
                "fromFBX": {
                    "shadingModel": "Lambert",
                    "isTruePBR": false
                }
            },
            "pbrMetallicRoughness": {
                "baseColorFactor": [
                    0.347519993782043,
                    0.470640003681183,
                    0.709519982337952,
                    1.0
                ],
                "metallicFactor": 0.200000002980232,
                "roughnessFactor": 0.800000011920929
            }
        },
        {
            "name": "Material_003",
            "alphaMode": "OPAQUE",
            "doubleSided": false,
            "extras": {
                "fromFBX": {
                    "shadingModel": "Lambert",
                    "isTruePBR": false
                }
            },
            "pbrMetallicRoughness": {
                "baseColorFactor": [
                    0.151600003242493,
                    0.0996799990534782,
                    0.493440002202988,
                    1.0
                ],
                "metallicFactor": 0.200000002980232,
                "roughnessFactor": 0.800000011920929
            }
        },
        {
            "name": "Material_001",
            "alphaMode": "OPAQUE",
            "doubleSided": false,
            "extras": {
                "fromFBX": {
                    "shadingModel": "Lambert",
                    "isTruePBR": false
                }
            },
            "pbrMetallicRoughness": {
                "baseColorFactor": [
                    0.0807199999690056,
                    0.0537599995732307,
                    0.258560001850128,
                    1.0
                ],
                "metallicFactor": 0.200000002980232,
                "roughnessFactor": 0.800000011920929
            }
        },
        {
            "name": "Thruster",
            "alphaMode": "OPAQUE",
            "doubleSided": false,
            "extras": {
                "fromFBX": {
                    "shadingModel": "Lambert",
                    "isTruePBR": false
                }
            },
            "pbrMetallicRoughness": {
                "baseColorFactor": [
                    0.471679985523224,
                    0.800000011920929,
                    0.0,
                    1.0
                ],
                "metallicFactor": 0.200000002980232,
                "roughnessFactor": 0.800000011920929
            }
        },
        {
            "name": "Material_007",
            "alphaMode": "OPAQUE",
            "doubleSided": false,
            "extras": {
                "fromFBX": {
                    "shadingModel": "Lambert",
                    "isTruePBR": false
                }
            },
            "pbrMetallicRoughness": {
                "baseColorFactor": [
                    0.112000003457069,
                    0.112000003457069,
                    0.112000003457069,
                    1.0
                ],
                "metallicFactor": 0.200000002980232,
                "roughnessFactor": 0.800000011920929
            }
        }
    ],
    "meshes": [
        {
            "name": "CobraMk3",
            "primitives": [
                {
                    "material": 0,
                    "mode": 4,
                    "attributes": {
                        "NORMAL": 4,
                        "POSITION": 3
                    },
                    "indices": 2
                },
                {
                    "material": 1,
                    "mode": 4,
                    "attributes": {
                        "NORMAL": 7,
                        "POSITION": 6
                    },
                    "indices": 5
                },
                {
                    "material": 2,
                    "mode": 4,
                    "attributes": {
                        "NORMAL": 10,
                        "POSITION": 9
                    },
                    "indices": 8
                },
                {
                    "material": 3,
                    "mode": 4,
                    "attributes": {
                        "NORMAL": 13,
                        "POSITION": 12
                    },
                    "indices": 11
                },
                {
                    "material": 4,
                    "mode": 4,
                    "attributes": {
                        "NORMAL": 16,
                        "POSITION": 15
                    },
                    "indices": 14
                },
                {
                    "material": 5,
                    "mode": 4,
                    "attributes": {
                        "NORMAL": 19,
                        "POSITION": 18
                    },
                    "indices": 17
                },
                {
                    "material": 6,
                    "mode": 4,
                    "attributes": {
                        "NORMAL": 22,
                        "POSITION": 21
                    },
                    "indices": 20
                }
            ]
        }
    ],
    "animations": [
        {
            "name": "Default Take",
            "channels": [
                {
                    "sampler": 0,
                    "target": {
                        "node": 3,
                        "path": "rotation"
                    }
                }
            ],
            "samplers": [
                {
                    "input": 0,
                    "interpolation": "LINEAR",
                    "output": 1
                }
            ]
        }
    ],
    "cameras": [
        {
            "name": "",
            "type": "perspective",
            "perspective": {
                "znear": 0.100000001490116,
                "zfar": 99.9999923706055,
                "aspectRatio": 1.77777802944183,
                "yfov": 0.503379642963409
            }
        }
    ],
    "nodes": [
        {
            "name": "RootNode",
            "translation": [
                0.0,
                0.0,
                0.0
            ],
            "rotation": [
                0.0,
                0.0,
                0.0,
                1.0
            ],
            "scale": [
                1.0,
                1.0,
                1.0
            ],
            "children": [
                1,
                2,
                3,
                4,
                5,
                6
            ]
        },
        {
            "name": "CobraMk3",
            "translation": [
                0.0,
                0.0,
                0.0
            ],
            "rotation": [
                -0.707106828689575,
                0.0,
                0.0,
                0.707106709480286
            ],
            "scale": [
                0.100000001490116,
                0.100000001490116,
                0.100000001490116
            ],
            "mesh": 0
        },
        {
            "name": "Ship_None",
            "translation": [
                0.0,
                0.0,
                0.0
            ],
            "rotation": [
                -0.707106828689575,
                0.0,
                0.0,
                0.707106709480286
            ],
            "scale": [
                0.100000001490116,
                0.100000001490116,
                0.100000001490116
            ]
        },
        {
            "name": "Cube",
            "translation": [
                -0.000509601843077689,
                -0.00158929405733943,
                0.000474071799544618
            ],
            "rotation": [
                -0.707106828689575,
                0.0,
                0.0,
                0.707106709480286
            ],
            "scale": [
                -0.671309351921082,
                -0.671309351921082,
                -0.671309351921082
            ]
        },
        {
            "name": "Lamp",
            "translation": [
                -0.00281402817927301,
                -0.041598729789257,
                -0.0266848541796207
            ],
            "rotation": [
                -1.04928368216406e-07,
                -0.0,
                0.0,
                1.0
            ],
            "scale": [
                1.0,
                1.0,
                1.0
            ],
            "extensions": {
                "KHR_lights_punctual": {
                    "light": 0
                }
            }
        },
        {
            "name": "Lamp_001",
            "translation": [
                -0.0225827116519213,
                0.0705171972513199,
                -0.0532320775091648
            ],
            "rotation": [
                -1.04928368216406e-07,
                -0.0,
                0.0,
                1.0
            ],
            "scale": [
                1.0,
                1.0,
                1.0
            ],
            "extensions": {
                "KHR_lights_punctual": {
                    "light": 0
                }
            }
        },
        {
            "name": "Camera",
            "translation": [
                -0.00966422725468874,
                0.0263740364462137,
                -0.0308507271111012
            ],
            "rotation": [
                0.120135381817818,
                -0.93486100435257,
                -0.320607841014862,
                0.0938776135444641
            ],
            "scale": [
                0.99999988079071,
                0.999999821186066,
                1.0
            ],
            "camera": 0
        }
    ],
    "extensions": {
        "KHR_lights_punctual": {
            "lights": [
                {
                    "name": "",
                    "color": [
                        1.0,
                        1.0,
                        1.0
                    ],
                    "intensity": 0.891999959945679,
                    "type": "point"
                }
            ]
        }
    }
}