# Blender v2.79 (sub 0) OBJ File: 'discfish.blend'
# www.blender.org
mtllib discfish.mtl
o Cube.010_Cube.000
v 0.749770 0.481816 0.097293
v 0.735542 0.476797 0.139685
v 0.728526 0.418252 0.112087
v 0.725558 0.446926 0.146637
v 0.665605 0.422678 0.139144
v 0.695989 0.449006 0.159352
v 0.647963 0.488977 0.141071
v 0.687698 0.480163 0.160258
v 0.699979 0.525527 0.115206
v 0.712143 0.497339 0.148103
v 0.754829 0.482466 0.121226
v 0.735436 0.424442 0.134732
v 0.677999 0.428482 0.159430
v 0.661894 0.489004 0.161190
v 0.709378 0.522368 0.137578
v 0.749770 0.481816 -0.097293
v 0.735542 0.476797 -0.139685
v 0.728526 0.418252 -0.112088
v 0.725558 0.446926 -0.146637
v 0.665605 0.422678 -0.139144
v 0.695989 0.449006 -0.159352
v 0.647963 0.488977 -0.141071
v 0.687698 0.480163 -0.160258
v 0.699979 0.525527 -0.115206
v 0.712143 0.497339 -0.148103
v 0.754829 0.482466 -0.121227
v 0.735436 0.424442 -0.134732
v 0.677999 0.428482 -0.159430
v 0.661894 0.489004 -0.161190
v 0.709378 0.522368 -0.137578
v 0.812275 0.557779 0.063038
v 0.795228 0.360065 0.069082
v 0.638816 0.258488 0.127436
v 0.843647 0.426537 0.053437
v 0.627171 0.644923 0.119575
v 0.554665 0.189257 0.142522
v 0.215324 0.694907 0.197306
v -0.050691 0.672818 0.211731
v 0.342631 0.156354 0.192816
v 0.124765 0.160395 0.204008
v -0.142008 0.598954 0.151417
v 0.020355 0.176508 0.137496
v 0.033411 0.386036 0.264403
v 0.246797 0.385383 0.268014
v 0.824136 0.433223 0.070629
v 0.848267 0.431112 0.034922
v 0.789241 0.439740 0.018647
v 0.748019 0.394206 0.116872
v 0.780673 0.471380 0.094581
v 0.602073 0.417534 0.176115
v 0.662333 0.513767 0.146023
v 0.207218 0.968754 0.059148
v -0.069557 0.892885 0.057839
v 0.454658 -0.009312 0.076345
v 0.227032 -0.027803 0.105414
v -0.082890 0.401998 0.148498
v 0.182869 -0.075495 0.001731
v -0.198660 0.786726 0.048189
v 0.812275 0.557779 -0.063038
v 0.795228 0.360065 -0.069082
v 0.638816 0.258488 -0.127436
v 0.843647 0.426537 -0.053437
v 0.627171 0.644923 -0.119575
v 0.826020 0.789314 -0.000000
v 0.830882 0.272203 -0.000000
v 0.889183 0.384155 -0.000000
v 0.881580 0.669839 -0.000000
v 0.914215 0.509501 -0.000000
v 0.763664 0.439538 -0.000000
v 0.745178 0.077686 0.000000
v 0.554665 0.189257 -0.142522
v 0.755902 0.888062 -0.000000
v 0.215324 0.694907 -0.197306
v -0.050691 0.672818 -0.211731
v 0.342631 0.156354 -0.192816
v 0.124765 0.160395 -0.204008
v -0.142008 0.598954 -0.151417
v 0.020355 0.176508 -0.137496
v 0.033411 0.386036 -0.264403
v 0.246797 0.385383 -0.268014
v 0.824136 0.433223 -0.070629
v 0.848267 0.431112 -0.034922
v 0.789241 0.439740 -0.018647
v 0.639571 0.970536 -0.000000
v 0.186121 1.357398 -0.000000
v 0.613084 -0.218539 0.000000
v -0.345780 1.647430 -0.000000
v 0.467996 -0.384617 0.000000
v 0.780841 0.183896 -0.000000
v 0.913923 0.564891 -0.000000
v 0.874073 0.339869 -0.000000
v 0.886677 0.484048 -0.000000
v 0.873045 0.409026 -0.000000
v 0.786095 0.456576 -0.000000
v 0.773909 0.424570 -0.000000
v 0.711290 -0.029849 0.000000
v 0.748019 0.394206 -0.116872
v 0.780673 0.471380 -0.094581
v 0.602073 0.417534 -0.176115
v 0.662333 0.513767 -0.146023
v 0.207218 0.968754 -0.059148
v -0.069557 0.892885 -0.057839
v 0.454658 -0.009312 -0.076345
v 0.227032 -0.027803 -0.105414
v -0.082890 0.401998 -0.148498
v -0.257721 0.847494 0.000000
v 0.182869 -0.075495 -0.001731
v -0.198660 0.786726 -0.048189
vn 0.2550 -0.1927 0.9476
vn 0.2556 -0.1934 0.9472
vn 0.2546 -0.1924 0.9477
vn 0.2268 0.2114 0.9507
vn 0.3404 -0.2024 0.9182
vn 0.3346 -0.2043 0.9200
vn 0.3394 -0.2027 0.9185
vn 0.5124 0.1579 0.8441
vn 0.5923 -0.3356 0.7325
vn 0.5837 -0.2677 0.7666
vn 0.6809 -0.0778 0.7282
vn 0.3824 0.0491 0.9227
vn 0.3334 -0.2047 0.9203
vn 0.6039 -0.1903 0.7740
vn 0.5150 -0.3536 0.7809
vn 0.8072 0.5237 0.2724
vn 0.1377 0.8783 -0.4578
vn 0.1710 -0.6260 -0.7608
vn 0.6000 -0.2531 0.7589
vn 0.6529 -0.0395 0.7564
vn 0.6595 -0.7135 -0.2368
vn 0.4675 -0.6154 -0.6346
vn 0.3568 0.2533 0.8992
vn 0.1200 0.2271 0.9665
vn 0.3423 0.2731 0.8990
vn 0.0519 0.0952 0.9941
vn -0.0158 0.2211 0.9751
vn 0.1332 0.1562 0.9787
vn 0.2298 -0.4099 0.8827
vn 0.2718 -0.1415 0.9519
vn 0.0436 -0.2952 0.9545
vn -0.6752 -0.0743 0.7338
vn 0.1479 -0.3947 0.9068
vn 0.1849 -0.1615 0.9694
vn -0.6218 -0.5765 0.5301
vn 0.4219 0.0823 0.9029
vn -0.4540 0.4841 0.7480
vn -0.6656 -0.4323 0.6083
vn -0.7091 -0.0793 0.7006
vn -0.4940 -0.5987 0.6305
vn 0.0110 0.4507 0.8926
vn 0.2136 0.3296 0.9197
vn 0.4240 0.2144 0.8799
vn 0.2623 -0.2002 0.9440
vn 0.2079 0.2379 0.9488
vn 0.4506 0.2095 0.8678
vn 0.5478 0.1028 0.8303
vn 0.5192 0.1012 0.8486
vn 0.5317 -0.3465 0.7728
vn 0.6486 -0.2213 0.7282
vn 0.3930 -0.2873 0.8735
vn 0.5943 -0.1995 0.7791
vn 0.8401 0.4393 0.3182
vn 0.2922 0.6100 -0.7366
vn 0.5447 0.3728 -0.7512
vn 0.0790 -0.7332 -0.6754
vn 0.5616 -0.3585 0.7457
vn 0.3628 -0.1627 0.9176
vn 0.6013 0.0032 0.7990
vn 0.8287 -0.5554 0.0695
vn 0.2322 0.3275 0.9159
vn -0.0452 0.1479 0.9880
vn 0.0373 0.1911 0.9809
vn 0.2708 -0.4244 0.8641
vn -0.0171 -0.2650 0.9641
vn -0.1052 0.0376 0.9937
vn 0.0321 -0.5602 0.8277
vn 0.1423 -0.2425 0.9597
vn -0.5527 -0.6424 0.5309
vn -0.6499 0.2061 0.7316
vn -0.5457 -0.2883 0.7868
vn -0.4574 -0.1503 0.8765
vn -0.1565 0.5570 0.8157
vn 0.1192 0.4500 0.8850
vn 0.4414 0.1609 0.8828
vn 0.2550 -0.1927 -0.9476
vn 0.2546 -0.1924 -0.9477
vn 0.2556 -0.1934 -0.9472
vn 0.2268 0.2114 -0.9507
vn 0.3404 -0.2024 -0.9182
vn 0.3394 -0.2027 -0.9185
vn 0.3346 -0.2043 -0.9200
vn 0.5124 0.1579 -0.8441
vn 0.5923 -0.3356 -0.7325
vn 0.5837 -0.2677 -0.7666
vn 0.6809 -0.0778 -0.7282
vn 0.3824 0.0491 -0.9227
vn 0.3334 -0.2047 -0.9203
vn 0.6039 -0.1903 -0.7740
vn 0.5150 -0.3536 -0.7809
vn 0.8072 0.5237 -0.2724
vn 0.1377 0.8783 0.4578
vn 0.1710 -0.6260 0.7608
vn 0.6000 -0.2531 -0.7589
vn 0.6529 -0.0395 -0.7564
vn 0.6595 -0.7135 0.2368
vn 0.4675 -0.6155 0.6346
vn 0.3568 0.2533 -0.8992
vn 0.1200 0.2271 -0.9665
vn 0.3423 0.2731 -0.8990
vn 0.0519 0.0952 -0.9941
vn -0.0158 0.2211 -0.9751
vn 0.1332 0.1562 -0.9787
vn 0.2298 -0.4099 -0.8827
vn 0.2718 -0.1415 -0.9519
vn 0.0436 -0.2952 -0.9545
vn -0.6752 -0.0743 -0.7338
vn 0.1479 -0.3947 -0.9068
vn 0.1849 -0.1615 -0.9694
vn -0.6218 -0.5765 -0.5301
vn 0.4219 0.0823 -0.9029
vn -0.4540 0.4841 -0.7480
vn -0.6656 -0.4323 -0.6083
vn -0.7091 -0.0793 -0.7006
vn -0.4940 -0.5987 -0.6305
vn 0.0110 0.4507 -0.8926
vn 0.2136 0.3296 -0.9197
vn 0.4240 0.2144 -0.8799
vn 0.2623 -0.2002 -0.9440
vn 0.2079 0.2379 -0.9488
vn 0.4506 0.2095 -0.8678
vn 0.5478 0.1028 -0.8303
vn 0.5192 0.1012 -0.8486
vn 0.5317 -0.3465 -0.7728
vn 0.6486 -0.2213 -0.7282
vn 0.3930 -0.2873 -0.8735
vn 0.5943 -0.1995 -0.7791
vn 0.8401 0.4393 -0.3182
vn 0.2922 0.6100 0.7365
vn 0.5447 0.3728 0.7512
vn 0.0790 -0.7332 0.6754
vn 0.5616 -0.3585 -0.7457
vn 0.3628 -0.1627 -0.9176
vn 0.6013 0.0032 -0.7990
vn 0.8287 -0.5554 -0.0695
vn 0.2322 0.3275 -0.9159
vn -0.0452 0.1479 -0.9880
vn 0.0373 0.1911 -0.9809
vn 0.2708 -0.4244 -0.8641
vn -0.0171 -0.2650 -0.9641
vn -0.1052 0.0376 -0.9937
vn 0.0321 -0.5602 -0.8277
vn 0.1423 -0.2425 -0.9597
vn -0.5527 -0.6424 -0.5309
vn -0.6499 0.2061 -0.7316
vn -0.5457 -0.2883 -0.7868
vn -0.4574 -0.1503 -0.8765
vn -0.1565 0.5570 -0.8157
vn 0.1192 0.4500 -0.8850
vn 0.4414 0.1609 -0.8828
vn -0.7171 -0.6970 0.0000
vn -0.9574 -0.2887 0.0000
vn -0.9574 -0.2888 0.0000
vn -0.9578 -0.2875 0.0000
vn -0.9092 -0.4163 0.0000
vn -0.8404 -0.5420 0.0000
vn 0.7002 -0.0686 0.7106
vn 0.3571 -0.3097 0.8812
vn 0.0287 -0.0214 0.9994
vn 0.1689 0.3978 0.9018
vn 0.5839 0.3687 0.7233
vn 0.6206 0.7692 -0.1521
vn -0.4415 0.8440 0.3046
vn -0.8001 -0.2290 0.5544
vn 0.0403 -0.9669 0.2520
vn 0.9184 -0.3499 -0.1846
vn 0.3985 0.0795 0.9137
vn 0.7002 -0.0686 -0.7106
vn 0.3571 -0.3097 -0.8812
vn 0.0287 -0.0214 -0.9994
vn 0.1689 0.3978 -0.9018
vn 0.5839 0.3687 -0.7233
vn 0.6206 0.7692 0.1521
vn -0.4415 0.8440 -0.3046
vn -0.8001 -0.2290 -0.5544
vn 0.0403 -0.9669 -0.2520
vn 0.9184 -0.3499 0.1846
vn 0.3985 0.0795 -0.9137
usemtl body
s 1
f 50//1 39//2 36//3
f 35//4 44//4 50//4
f 48//5 50//6 33//7
f 31//8 90//8 67//8
f 32//9 89//9 65//9
f 91//10 34//10 45//10
f 32//11 49//11 48//11
f 50//12 48//12 51//12
f 33//7 50//6 36//13
f 33//14 96//14 70//14
f 33//15 89//15 48//15
f 93//16 34//16 66//16
f 95//17 46//17 93//17
f 46//18 94//18 92//18
f 45//19 32//19 91//19
f 34//20 90//20 45//20
f 34//21 92//21 68//21
f 47//22 69//22 94//22
f 35//23 64//23 72//23
f 35//24 50//24 51//24
f 35//25 51//25 64//25
f 53//26 85//26 87//26
f 37//27 43//27 44//27
f 52//28 84//28 85//28
f 36//29 54//29 96//29
f 96//30 54//30 86//30
f 44//31 40//31 39//31
f 58//32 87//32 106//32
f 54//33 40//33 55//33
f 86//34 55//34 88//34
f 55//35 57//35 88//35
f 49//36 51//36 48//36
f 58//37 38//37 53//37
f 56//38 40//38 43//38
f 38//39 56//39 43//39
f 40//40 42//40 55//40
f 52//41 38//41 37//41
f 84//42 37//42 35//42
f 31//43 64//43 51//43
f 50//1 44//44 39//2
f 35//45 37//45 44//45
f 31//46 67//46 64//46
f 31//47 49//47 45//47
f 31//48 45//48 90//48
f 32//49 48//49 89//49
f 91//50 66//50 34//50
f 33//51 36//51 96//51
f 33//52 70//52 89//52
f 93//53 46//53 34//53
f 95//54 47//54 46//54
f 95//55 69//55 47//55
f 46//56 47//56 94//56
f 65//57 91//57 32//57
f 45//58 49//58 32//58
f 34//59 68//59 90//59
f 34//60 46//60 92//60
f 35//61 72//61 84//61
f 53//62 52//62 85//62
f 37//63 38//63 43//63
f 36//64 39//64 54//64
f 44//65 43//65 40//65
f 58//66 53//66 87//66
f 54//67 39//67 40//67
f 86//68 54//68 55//68
f 55//69 42//69 57//69
f 58//70 41//70 38//70
f 56//71 42//71 40//71
f 38//72 41//72 56//72
f 52//73 53//73 38//73
f 84//74 52//74 37//74
f 51//75 49//75 31//75
f 99//76 71//77 75//78
f 63//79 99//79 80//79
f 97//80 61//81 99//82
f 59//83 67//83 90//83
f 60//84 65//84 89//84
f 91//85 81//85 62//85
f 60//86 97//86 98//86
f 99//87 100//87 97//87
f 61//81 71//88 99//82
f 61//89 70//89 96//89
f 61//90 97//90 89//90
f 93//91 66//91 62//91
f 95//92 93//92 82//92
f 82//93 92//93 94//93
f 81//94 91//94 60//94
f 62//95 81//95 90//95
f 62//96 68//96 92//96
f 83//97 94//97 69//97
f 63//98 72//98 64//98
f 63//99 100//99 99//99
f 63//100 64//100 100//100
f 102//101 87//101 85//101
f 73//102 80//102 79//102
f 101//103 85//103 84//103
f 71//104 96//104 103//104
f 96//105 86//105 103//105
f 80//106 75//106 76//106
f 108//107 106//107 87//107
f 103//108 104//108 76//108
f 86//109 88//109 104//109
f 104//110 88//110 107//110
f 98//111 97//111 100//111
f 108//112 102//112 74//112
f 105//113 79//113 76//113
f 74//114 79//114 105//114
f 76//115 104//115 78//115
f 101//116 73//116 74//116
f 84//117 63//117 73//117
f 59//118 100//118 64//118
f 99//76 75//78 80//119
f 63//120 80//120 73//120
f 59//121 64//121 67//121
f 59//122 81//122 98//122
f 59//123 90//123 81//123
f 60//124 89//124 97//124
f 91//125 62//125 66//125
f 61//126 96//126 71//126
f 61//127 89//127 70//127
f 93//128 62//128 82//128
f 95//129 82//129 83//129
f 95//130 83//130 69//130
f 82//131 94//131 83//131
f 65//132 60//132 91//132
f 81//133 60//133 98//133
f 62//134 90//134 68//134
f 62//135 92//135 82//135
f 63//136 84//136 72//136
f 102//137 85//137 101//137
f 73//138 79//138 74//138
f 71//139 103//139 75//139
f 80//140 76//140 79//140
f 108//141 87//141 102//141
f 103//142 76//142 75//142
f 86//143 104//143 103//143
f 104//144 107//144 78//144
f 108//145 74//145 77//145
f 105//146 76//146 78//146
f 74//147 105//147 77//147
f 101//148 74//148 102//148
f 84//149 73//149 101//149
f 100//150 59//150 98//150
f 106//151 108//151 58//151
f 41//152 58//153 108//153 77//152
f 56//154 41//152 77//152 105//154
f 56//155 105//155 78//155 42//155
f 57//156 42//156 78//156
usemtl eyes
f 11//157 4//157 12//157
f 4//158 13//158 12//158
f 13//159 8//159 14//159
f 8//160 15//160 14//160
f 15//161 2//161 11//161
f 15//162 1//162 9//162
f 14//163 9//163 7//163
f 5//164 14//164 7//164
f 3//165 13//165 5//165
f 11//166 3//166 1//166
f 2//167 8//167 6//167
f 11//157 2//157 4//157
f 4//158 6//158 13//158
f 13//159 6//159 8//159
f 8//160 10//160 15//160
f 15//161 10//161 2//161
f 15//162 11//162 1//162
f 14//163 15//163 9//163
f 5//164 13//164 14//164
f 3//165 12//165 13//165
f 11//166 12//166 3//166
f 6//167 4//167 2//167
f 2//167 10//167 8//167
f 26//168 27//168 19//168
f 19//169 27//169 28//169
f 28//170 29//170 23//170
f 23//171 29//171 30//171
f 30//172 26//172 17//172
f 30//173 24//173 16//173
f 29//174 22//174 24//174
f 20//175 22//175 29//175
f 18//176 20//176 28//176
f 26//177 16//177 18//177
f 17//178 21//178 23//178
f 26//168 19//168 17//168
f 19//169 28//169 21//169
f 28//170 23//170 21//170
f 23//171 30//171 25//171
f 30//172 17//172 25//172
f 30//173 16//173 26//173
f 29//174 24//174 30//174
f 20//175 29//175 28//175
f 18//176 28//176 27//176
f 26//177 18//177 27//177
f 21//178 17//178 19//178
f 17//178 23//178 25//178
o Cube.001_Cube.002
v -0.134191 0.598954 0.151417
v 0.028172 0.176508 0.137496
v -0.449861 0.576882 0.000000
v -0.250809 0.294854 0.071356
v -0.309741 0.405683 0.066582
v -0.075073 0.401998 0.148498
v 0.190686 -0.075495 0.001731
v -0.190843 0.786726 0.048189
v -0.450194 0.482336 0.040762
v -0.242623 0.178291 0.000000
v -0.374515 0.274270 0.028472
v -0.134191 0.598954 -0.151417
v 0.028172 0.176508 -0.137496
v -0.147530 0.161044 0.000000
v -0.250809 0.294854 -0.071356
v -0.309741 0.405683 -0.066582
v -0.075073 0.401998 -0.148498
v -0.249904 0.847494 -0.000000
v 0.190686 -0.075495 -0.001731
v -0.190843 0.786726 -0.048189
v -0.450194 0.482336 -0.040762
v -0.374515 0.274270 -0.028472
v -0.038327 0.589674 0.143545
v 0.115595 0.189190 0.130348
v 0.017717 0.402957 0.140778
v 0.269660 -0.049712 0.001641
v -0.092034 0.806133 0.045684
v -0.038327 0.589674 -0.143545
v 0.115595 0.189190 -0.130348
v 0.017717 0.402957 -0.140778
v -0.148024 0.870415 -0.000000
v 0.269660 -0.049712 -0.001641
v -0.092034 0.793410 -0.045684
vn -0.4419 0.3565 0.8232
vn -0.4436 -0.6297 0.6377
vn -0.1832 -0.5689 0.8017
vn -0.3290 -0.1127 0.9376
vn -0.3068 -0.1225 0.9439
vn -0.2705 -0.1026 0.9573
vn -0.1328 0.0891 0.9871
vn -0.4016 0.2967 0.8664
vn -0.4265 -0.6594 0.6192
vn -0.2573 -0.1500 0.9546
vn -0.0665 -0.3667 0.9280
vn -0.3260 -0.1944 0.9252
vn -0.6160 0.2286 0.7539
vn -0.4419 0.3565 -0.8232
vn -0.4436 -0.6297 -0.6377
vn -0.1832 -0.5689 -0.8017
vn -0.3290 -0.1127 -0.9376
vn -0.3068 -0.1225 -0.9439
vn -0.2705 -0.1026 -0.9573
vn -0.1328 0.0891 -0.9871
vn -0.4016 0.2967 -0.8664
vn -0.4265 -0.6594 -0.6192
vn -0.5884 -0.8086 0.0000
vn -0.2573 -0.1500 -0.9546
vn -0.9398 -0.3418 0.0000
vn -0.0665 -0.3667 -0.9280
vn -1.0000 0.0035 0.0000
vn -0.3260 -0.1944 -0.9252
vn -0.6160 0.2286 -0.7539
vn 0.0828 0.0101 -0.9965
vn 0.0828 0.0101 0.9965
vn -0.0666 0.5233 -0.8496
vn -0.1024 0.5352 0.8385
vn 0.1325 -0.4026 -0.9058
vn 0.0830 -0.0106 -0.9965
vn 0.1325 -0.4026 0.9058
vn 0.0533 0.4681 -0.8821
vn 0.0830 -0.0106 0.9965
vn 0.0241 0.4505 0.8924
usemtl body
s 1
f 116//179 111//179 117//179
f 110//180 122//180 115//180
f 119//181 122//181 112//181
f 109//182 113//182 114//182
f 119//183 112//183 113//183
f 110//184 113//184 112//184
f 113//185 116//185 117//185
f 116//186 126//186 111//186
f 110//187 112//187 122//187
f 117//188 119//188 113//188
f 119//189 118//189 122//189
f 110//190 114//190 113//190
f 113//191 109//191 116//191
f 128//192 129//192 111//192
f 121//193 127//193 122//193
f 130//194 123//194 122//194
f 120//195 125//195 124//195
f 130//196 124//196 123//196
f 121//197 123//197 124//197
f 124//198 129//198 128//198
f 128//199 111//199 126//199
f 121//200 122//200 123//200
f 118//201 119//201 130//201
f 129//202 124//202 130//202
f 119//203 117//203 129//203 130//203
f 130//204 122//204 118//204
f 117//205 111//205 129//205
f 121//206 124//206 125//206
f 124//207 128//207 120//207
f 125//208 120//208 136//208 138//208
f 109//209 114//209 133//209 131//209
f 128//210 126//210 139//210 141//210
f 126//211 116//211 135//211 139//211
f 127//212 121//212 137//212 140//212
f 121//213 125//213 138//213 137//213
f 110//214 115//214 134//214 132//214
f 120//215 128//215 141//215 136//215
f 114//216 110//216 132//216 133//216
f 116//217 109//217 131//217 135//217
o Cube.002_Cube.003
v -0.439629 0.576882 -0.000000
v -0.439962 0.482336 0.040762
v -0.232391 0.178291 -0.000000
v -0.364283 0.274270 0.028472
v -0.810142 0.354520 0.000000
v -0.882238 0.756113 -0.000000
v -0.506278 0.034633 0.000000
v -0.853734 0.505376 0.000000
v -0.725590 0.174250 0.000000
v -0.439962 0.482336 -0.040762
v -0.364283 0.274270 -0.028472
vn -0.0695 -0.0326 0.9970
vn -0.0675 -0.0209 0.9975
vn -0.0692 -0.0306 0.9971
vn -0.1029 -0.0959 0.9901
vn 0.0000 0.0000 1.0000
vn 0.0023 -0.2815 0.9596
vn -0.0672 -0.0194 0.9976
vn -0.0682 0.3952 0.9161
vn -0.0695 -0.0326 -0.9970
vn -0.0692 -0.0306 -0.9971
vn -0.0675 -0.0209 -0.9975
vn -0.1029 -0.0959 -0.9901
vn 0.0023 -0.2815 -0.9596
vn -0.0672 -0.0194 -0.9976
vn -0.0682 0.3952 -0.9161
vn 0.5884 0.8086 0.0000
vn 1.0000 -0.0035 0.0000
vn 0.9398 0.3418 0.0000
usemtl body
s 1
f 150//218 145//219 146//220
f 149//221 145//221 143//221
f 149//222 142//222 147//222
f 150//223 144//223 145//223
f 149//224 146//220 145//219
f 149//225 143//225 142//225
f 150//222 148//222 144//222
f 150//226 146//227 152//228
f 149//229 151//229 152//229
f 150//230 152//230 144//230
f 149//231 152//228 146//227
f 149//232 142//232 151//232
f 144//233 152//233 145//233
f 143//234 151//234 142//234
f 145//235 152//235 151//235 143//235
