{
    "asset": {
        "generator": "FBX2glTF v0.13.0",
        "version": "2.0"
    },
    "scene": 0,
    "buffers": [
        {
            "byteLength": 17980,
            "uri": "buffer.bin"
        }
    ],
    "bufferViews": [
        {
            "buffer": 0,
            "byteLength": 4,
            "byteOffset": 0
        },
        {
            "buffer": 0,
            "byteLength": 5808,
            "byteOffset": 4,
            "target": 34963
        },
        {
            "buffer": 0,
            "byteLength": 6084,
            "byteOffset": 5812,
            "target": 34962
        },
        {
            "buffer": 0,
            "byteLength": 6084,
            "byteOffset": 11896,
            "target": 34962
        }
    ],
    "scenes": [
        {
            "name": "Root Scene",
            "nodes": [
                0
            ]
        }
    ],
    "accessors": [
        {
            "componentType": 5126,
            "type": "SCALAR",
            "count": 1,
            "bufferView": 0,
            "byteOffset": 0,
            "min": [
                0.0
            ],
            "max": [
                0.0
            ]
        },
        {
            "componentType": 5123,
            "type": "SCALAR",
            "count": 2904,
            "bufferView": 1,
            "byteOffset": 0
        },
        {
            "componentType": 5126,
            "type": "VEC3",
            "count": 507,
            "bufferView": 2,
            "byteOffset": 0,
            "min": [
                -0.0136718796566129,
                -0.00984374992549419,
                -0.00851561967283487
            ],
            "max": [
                0.0136718796566129,
                0.00984374992549419,
                0.00851561967283487
            ]
        },
        {
            "componentType": 5126,
            "type": "VEC3",
            "count": 507,
            "bufferView": 3,
            "byteOffset": 0
        }
    ],
    "samplers": [
        {}
    ],
    "materials": [
        {
            "name": "Material",
            "alphaMode": "OPAQUE",
            "doubleSided": false,
            "extras": {
                "fromFBX": {
                    "shadingModel": "Lambert",
                    "isTruePBR": false
                }
            },
            "pbrMetallicRoughness": {
                "baseColorFactor": [
                    0.537599980831146,
                    0.613439977169037,
                    0.702000021934509,
                    1.0
                ],
                "metallicFactor": 0.200000002980232,
                "roughnessFactor": 0.800000011920929
            }
        }
    ],
    "meshes": [
        {
            "name": "Suzanne",
            "primitives": [
                {
                    "material": 0,
                    "mode": 4,
                    "attributes": {
                        "NORMAL": 3,
                        "POSITION": 2
                    },
                    "indices": 1
                }
            ]
        }
    ],
    "animations": [
        {
            "name": "Default Take",
            "channels": [],
            "samplers": []
        }
    ],
    "nodes": [
        {
            "name": "RootNode",
            "translation": [
                0.0,
                0.0,
                0.0
            ],
            "rotation": [
                0.0,
                0.0,
                0.0,
                1.0
            ],
            "scale": [
                1.0,
                1.0,
                1.0
            ],
            "children": [
                1
            ]
        },
        {
            "name": "Suzanne",
            "translation": [
                -0.000509601668454707,
                -0.00158929405733943,
                0.000474071654025465
            ],
            "rotation": [
                -0.707106828689575,
                0.0,
                0.0,
                0.707106709480286
            ],
            "scale": [
                1.0,
                1.0,
                1.0
            ],
            "mesh": 0
        }
    ]
}